<?xml version="1.0" standalone="yes"?>

<svg version="1.1" viewBox="0.0 0.0 333.68766404199476 187.28871391076115" fill="none" stroke="none" stroke-linecap="square" stroke-miterlimit="10" xmlns="http://www.w3.org/2000/svg" xmlns:xlink="http://www.w3.org/1999/xlink"><clipPath id="p.0"><path d="m0 0l333.68765 0l0 187.28871l-333.68765 0l0 -187.28871z" clip-rule="nonzero"></path></clipPath><g clip-path="url(#p.0)"><path fill="#000000" fill-opacity="0.0" d="m0 0l333.68765 0l0 187.28871l-333.68765 0z" fill-rule="evenodd"></path><path fill="#cfe2f3" d="m31.68304 187.32808l0 0c-17.261782 0 -31.255219 -13.993439 -31.255219 -31.255219l0 -125.01712l0 0c0 -8.289398 3.292951 -16.239285 9.154442 -22.100777c5.8614902 -5.8614902 13.811378 -9.154442 22.100777 -9.154442l270.21396 0c17.26178 0 31.255219 13.993438 31.255219 31.255217l0 125.01712c0 17.26178 -13.993439 31.255219 -31.255219 31.255219z" fill-rule="evenodd"></path><path stroke="#000000" stroke-width="1.0" stroke-linejoin="round" stroke-linecap="butt" d="m31.68304 187.32808l0 0c-17.261782 0 -31.255219 -13.993439 -31.255219 -31.255219l0 -125.01712l0 0c0 -8.289398 3.292951 -16.239285 9.154442 -22.100777c5.8614902 -5.8614902 13.811378 -9.154442 22.100777 -9.154442l270.21396 0c17.26178 0 31.255219 13.993438 31.255219 31.255217l0 125.01712c0 17.26178 -13.993439 31.255219 -31.255219 31.255219z" fill-rule="evenodd"></path></g></svg>

