# Blender v2.82 (sub 7) OBJ File: 'cube.blend'
# www.blender.org
mtllib cube.mtl
o Cube.001
v -0.213805 -0.213805 0.213805
v -0.213805 0.213805 0.213805
v -0.213805 -0.213805 -0.213805
v -0.213805 0.213805 -0.213805
v 1.312038 -0.213805 0.213805
v 1.312038 0.213805 0.213805
v 1.312038 -0.213805 -0.213805
v 1.312038 0.213805 -0.213805
v -0.213805 0.583836 -0.583836
v -0.213805 -0.583836 -0.583836
v -0.213805 0.583836 0.583836
v -0.213805 -0.583836 0.583836
v -1.381478 0.583836 -0.583836
v -1.381478 -0.583836 -0.583836
v -1.381478 0.583836 0.583836
v -1.381478 -0.583836 0.583836
vt 0.375000 0.000000
vt 0.625000 0.000000
vt 0.625000 0.250000
vt 0.375000 0.250000
vt 0.625000 0.500000
vt 0.375000 0.500000
vt 0.625000 0.750000
vt 0.375000 0.750000
vt 0.625000 1.000000
vt 0.375000 1.000000
vt 0.125000 0.500000
vt 0.125000 0.750000
vt 0.875000 0.500000
vt 0.875000 0.750000
vt 0.375000 0.500000
vt 0.625000 0.500000
vt 0.625000 0.750000
vt 0.375000 0.750000
vt 0.375000 0.000000
vt 0.625000 0.000000
vt 0.625000 0.250000
vt 0.375000 0.250000
vt 0.625000 1.000000
vt 0.375000 1.000000
vt 0.875000 0.500000
vt 0.875000 0.750000
vt 0.125000 0.500000
vt 0.125000 0.750000
vn -1.0000 0.0000 0.0000
vn 0.0000 0.0000 -1.0000
vn 1.0000 0.0000 0.0000
vn 0.0000 0.0000 1.0000
vn 0.0000 -1.0000 0.0000
vn 0.0000 1.0000 0.0000
usemtl Material.001
s off
f 1/1/1 2/2/1 4/3/1 3/4/1
f 3/4/2 4/3/2 8/5/2 7/6/2
f 7/6/3 8/5/3 6/7/3 5/8/3
f 5/8/4 6/7/4 2/9/4 1/10/4
f 3/11/5 7/6/5 5/8/5 1/12/5
f 8/5/6 4/13/6 2/14/6 6/7/6
usemtl X1
f 10/15/3 9/16/3 11/17/3 12/18/3
usemtl X-1
f 16/19/1 15/20/1 13/21/1 14/22/1
usemtl Y-1
f 12/18/4 11/17/4 15/23/4 16/24/4
usemtl Y1
f 14/22/2 13/21/2 9/16/2 10/15/2
usemtl Z1
f 9/16/6 13/25/6 15/26/6 11/17/6
usemtl Z-1
f 14/27/5 10/15/5 12/18/5 16/28/5
