{
    "asset" : {
        "version" : "2.0",
        "generator" : "Khronos glTF Blender I/O v1.2.20"
    },
    "scene" : 0,
    "scenes" : [
        {
            "nodes" : [
                0
            ],
            "name" : "Scene"
        }
    ],
    "nodes" : [
        {
            "mesh" : 0,
            "name" : "Cube"
        }
    ],
    "animations" : [
        {
            "samplers" : [
                {
                    "input" : 3,
                    "output" : 4,
                    "interpolation" : "LINEAR"
                }
            ],
            "name" : "CubeAction",
            "channels" : [
                {
                    "sampler" : 0,
                    "target" : {
                        "path" : "translation",
                        "node" : 0
                    }
                }
            ]
        }
    ],
    "materials" : [
        {
            "name" : "Material",
            "pbrMetallicRoughness" : {
                "roughnessFactor" : 0.5,
                "metallicFactor" : 0,
                "baseColorFactor" : [
                    0.800000011920929,
                    0.800000011920929,
                    0.800000011920929,
                    1
                ]
            }
        }
    ],
    "meshes" : [
        {
            "name" : "Cube",
            "primitives" : [
                {
                    "material" : 0,
                    "indices" : 2,
                    "attributes" : {
                        "POSITION" : 0,
                        "NORMAL" : 1
                    }
                }
            ]
        }
    ],
    "accessors" : [
        {
            "type" : "VEC3",
            "componentType" : 5126,
            "bufferView" : 0,
            "count" : 24,
            "min" : [
                -1.0000003576278687,
                -1,
                -1.0000003576278687
            ],
            "max" : [
                1.0000004768371582,
                1,
                1.0000005960464478
            ]
        },
        {
            "componentType" : 5126,
            "bufferView" : 1,
            "type" : "VEC3",
            "count" : 24
        },
        {
            "componentType" : 5123,
            "bufferView" : 2,
            "type" : "SCALAR",
            "count" : 36
        },
        {
            "type" : "SCALAR",
            "componentType" : 5126,
            "bufferView" : 3,
            "count" : 150,
            "min" : [
                0.041666666666666664
            ],
            "max" : [
                6.25
            ]
        },
        {
            "componentType" : 5126,
            "bufferView" : 4,
            "type" : "VEC3",
            "count" : 150
        }
    ],
    "bufferViews" : [
        {
            "byteLength" : 288,
            "buffer" : 0,
            "byteOffset" : 0
        },
        {
            "byteLength" : 288,
            "buffer" : 0,
            "byteOffset" : 288
        },
        {
            "byteLength" : 72,
            "buffer" : 0,
            "byteOffset" : 576
        },
        {
            "byteLength" : 600,
            "buffer" : 0,
            "byteOffset" : 648
        },
        {
            "byteLength" : 1800,
            "buffer" : 0,
            "byteOffset" : 1248
        }
    ],
    "buffers" : [
        {
            "uri" : "data:application/octet-stream;base64,",
            "byteLength" : 3048
        }
    ]
}
